<?xml version="1.0" encoding="utf-8"?>
<!-- Generator: Adobe Illustrator 15.0.0, SVG Export Plug-In . SVG Version: 6.00 Build 0)  -->
<!DOCTYPE svg PUBLIC "-//W3C//DTD SVG 1.1//EN" "http://www.w3.org/Graphics/SVG/1.1/DTD/svg11.dtd">
<svg version="1.1" id="Layer_1" xmlns="http://www.w3.org/2000/svg" xmlns:xlink="http://www.w3.org/1999/xlink" x="0px" y="0px"
	 width="100.417px" height="100.417px" viewBox="0 0 100.417 100.417" enable-background="new 0 0 100.417 100.417"
	 xml:space="preserve">
<rect fill="#FFFFFF" width="100.417" height="100.417"/>
<polygon fill="#CDCCCC" stroke="#000000" stroke-width="1.5" points="77.622,-35.393 77.622,-113.477 140.547,-113.475 
	140.547,-35.393 109.084,-23.784 "/>
<polygon fill="#CDCCCC" stroke="#000000" stroke-width="1.5" points="148.175,-35.393 148.175,-113.477 211.101,-113.475 
	211.101,-35.393 179.638,-23.784 "/>
<polygon fill="#CDCCCC" stroke="#000000" stroke-width="1.5" points="221.642,-35.393 221.642,-113.477 284.568,-113.475 
	284.568,-35.393 253.105,-23.784 "/>
<g>
	<linearGradient id="SVGID_1_" gradientUnits="userSpaceOnUse" x1="50.2075" y1="91.6665" x2="50.2075" y2="7.6033">
		<stop  offset="0" style="stop-color:#FAB50C"/>
		<stop  offset="0.1457" style="stop-color:#F6A20F"/>
		<stop  offset="0.3871" style="stop-color:#F18611"/>
		<stop  offset="0.6164" style="stop-color:#EE7112"/>
		<stop  offset="0.8266" style="stop-color:#EC6413"/>
		<stop  offset="1" style="stop-color:#EB5F13"/>
	</linearGradient>
	<polygon fill="url(#SVGID_1_)" stroke="#E5720A" stroke-width="3" points="12.29,85.165 12.29,3.714 88.125,3.716 88.125,85.165 
		50.21,97.274 	"/>
	<linearGradient id="SVGID_2_" gradientUnits="userSpaceOnUse" x1="50.208" y1="66.9419" x2="50.208" y2="15.6814">
		<stop  offset="0" style="stop-color:#FFFFFF;stop-opacity:0.1"/>
		<stop  offset="0.0896" style="stop-color:#FFFFFF;stop-opacity:0.091"/>
		<stop  offset="1" style="stop-color:#FFFFFF;stop-opacity:0"/>
	</linearGradient>
	<polygon fill="url(#SVGID_2_)" points="25.444,92.368 25.444,5.971 74.972,5.976 74.972,92.174 50.21,100.126 	"/>
	<g>
		<path fill="none" stroke="#3D3D3D" stroke-width="0.25" d="M59.737,88.868"/>
		<path fill="none" stroke="#3D3D3D" stroke-width="0.25" d="M40.679,72.382"/>
		<path fill="none" stroke="#3D3D3D" stroke-width="0.25" d="M40.679,88.868"/>
		<path fill="none" stroke="#3D3D3D" stroke-width="0.25" d="M59.737,72.382"/>
	</g>
	<linearGradient id="SVGID_3_" gradientUnits="userSpaceOnUse" x1="50.208" y1="63.4316" x2="50.208" y2="15.1224">
		<stop  offset="0" style="stop-color:#FAB50C"/>
		<stop  offset="0.1457" style="stop-color:#F6A20F"/>
		<stop  offset="0.3871" style="stop-color:#F18611"/>
		<stop  offset="0.6164" style="stop-color:#EE7112"/>
		<stop  offset="0.8266" style="stop-color:#EC6413"/>
		<stop  offset="1" style="stop-color:#EB5F13"/>
	</linearGradient>
	<polygon fill="url(#SVGID_3_)" points="25.444,87.397 25.444,5.971 74.972,5.976 74.972,87.211 50.21,94.706 	"/>
	<g>
		<path fill="#FFFFFF" stroke="#E5720A" stroke-width="3" d="M35.054,24.878c0-0.596,0.344-1.013,0.964-1.013h16.045
			c3.168,0,13.359,1.967,13.359,13.231c0,5.543-5.715,11.026-12.326,11.026c-3.375,0-3.719,0-3.719,0.715v18.894
			c0,0.477-0.413,0.834-1.17,0.834H36.155c-0.62,0-1.102-0.477-1.102-1.073V24.878z M49.377,40.434c0,0.239,0.207,0.656,0.688,0.656
			c1.033,0,1.446-0.775,1.446-1.967V36.68c0-0.954-0.551-1.609-1.446-1.609c-0.207,0-0.344,0-0.482,0.06s-0.207,0.298-0.207,0.477
			V40.434z"/>
	</g>
</g>
<text transform="matrix(1 0 0 1 97.8945 -68.6304)" fill="#FFFFFF" stroke="#000000" stroke-width="2.5" font-family="'PoplarStd'" font-size="46.6213">T</text>
<text transform="matrix(1 0 0 1 244.0103 -68.6304)" fill="#FFFFFF" stroke="#000000" stroke-width="2.5" font-family="'AgencyFB-Bold'" font-size="46.6213">T</text>
<text transform="matrix(1 0 0 1 171.4771 -68.6304)" fill="#FFFFFF" stroke="#000000" stroke-width="2.5" font-family="'Haettenschweiler'" font-size="46.6213">T</text>
<g>
	<linearGradient id="SVGID_4_" gradientUnits="userSpaceOnUse" x1="-25.0889" y1="-13.4429" x2="-25.0889" y2="-35.9554">
		<stop  offset="0" style="stop-color:#FAB50C"/>
		<stop  offset="0.1457" style="stop-color:#F6A20F"/>
		<stop  offset="0.3871" style="stop-color:#F18611"/>
		<stop  offset="0.6164" style="stop-color:#EE7112"/>
		<stop  offset="0.8266" style="stop-color:#EC6413"/>
		<stop  offset="1" style="stop-color:#EB5F13"/>
	</linearGradient>
	<polygon fill="url(#SVGID_4_)" stroke="#E5720A" points="-33.761,-16.18 -33.761,-34.809 -16.417,-34.808 -16.417,-16.18 
		-25.089,-13.411 	"/>
	<linearGradient id="SVGID_5_" gradientUnits="userSpaceOnUse" x1="-25.0889" y1="-21.1504" x2="-25.0889" y2="-32.199">
		<stop  offset="0" style="stop-color:#FAB50C"/>
		<stop  offset="0.1457" style="stop-color:#F6A20F"/>
		<stop  offset="0.3871" style="stop-color:#F18611"/>
		<stop  offset="0.6164" style="stop-color:#EE7112"/>
		<stop  offset="0.8266" style="stop-color:#EC6413"/>
		<stop  offset="1" style="stop-color:#EB5F13"/>
	</linearGradient>
	<polygon fill="url(#SVGID_5_)" points="-30.753,-15.67 -30.753,-34.292 -19.425,-34.292 -19.425,-15.712 -25.089,-13.998 	"/>
	<linearGradient id="SVGID_6_" gradientUnits="userSpaceOnUse" x1="-25.0889" y1="-20.3477" x2="-25.0889" y2="-32.0712">
		<stop  offset="0" style="stop-color:#FFFFFF;stop-opacity:0.1"/>
		<stop  offset="0.0896" style="stop-color:#FFFFFF;stop-opacity:0.091"/>
		<stop  offset="1" style="stop-color:#FFFFFF;stop-opacity:0"/>
	</linearGradient>
	<polygon fill="url(#SVGID_6_)" points="-30.753,-14.533 -30.753,-34.292 -19.425,-34.292 -19.425,-14.577 -25.089,-12.758 	"/>
	
		<text transform="matrix(1.1553 0 0 1 -28.8701 -19.9756)" fill="#FFFFFF" stroke="#E5720A" font-family="'PoplarStd'" font-size="13.6312">P</text>
	<g>
		<path fill="none" stroke="#3D3D3D" stroke-width="0.25" d="M-22.91-15.333"/>
		<path fill="none" stroke="#3D3D3D" stroke-width="0.25" d="M-27.269-19.104"/>
		<path fill="none" stroke="#3D3D3D" stroke-width="0.25" d="M-27.269-15.333"/>
		<path fill="none" stroke="#3D3D3D" stroke-width="0.25" d="M-22.91-19.104"/>
	</g>
</g>
</svg>
